<?xml version="1.0" encoding="UTF-8"?>
<!DOCTYPE svg PUBLIC "-//W3C//DTD SVG 1.1//EN" "http://www.w3.org/Graphics/SVG/1.1/DTD/svg11.dtd">
<!-- Creator: CorelDRAW 2018 (64-Bit) -->
<svg xmlns="http://www.w3.org/2000/svg" xml:space="preserve" width="1943px" height="1077px" version="1.1" style="shape-rendering:geometricPrecision; text-rendering:geometricPrecision; image-rendering:optimizeQuality; fill-rule:evenodd; clip-rule:evenodd"
viewBox="0 0 21 11.64"
 xmlns:xlink="http://www.w3.org/1999/xlink">
 <defs>
  <style type="text/css">
   <![CDATA[
    .fil1 {fill:white}
    .fil0 {fill:white;fill-rule:nonzero}
   ]]>
  </style>
 </defs>
 <g id="Layer_x0020_1">
  <metadata id="CorelCorpID_0Corel-Layer"/>
  <path class="fil0" d="M14.38 5.4l-0.68 0 0.58 -4.05 2.26 0c0.37,0 0.68,-0.3 0.68,-0.67 0,-0.38 -0.31,-0.68 -0.68,-0.68l-2.85 0c-0.01,0 -0.02,0 -0.03,0 -0.02,0 -0.04,0.01 -0.06,0.01 -0.02,0 -0.04,0 -0.06,0.01 -0.02,0 -0.05,0.01 -0.08,0.02 -0.01,0.01 -0.03,0.01 -0.04,0.02 -0.03,0.01 -0.06,0.03 -0.08,0.04 0,0 -0.02,0.02 -0.03,0.02 -0.03,0.02 -0.05,0.04 -0.07,0.06 -0.01,0.01 -0.03,0.02 -0.03,0.03 -0.02,0.02 -0.04,0.04 -0.06,0.07 -0.01,0 -0.02,0.02 -0.02,0.03 -0.02,0.02 -0.03,0.04 -0.04,0.07 -0.01,0.01 -0.02,0.04 -0.02,0.04 -0.01,0.02 -0.02,0.04 -0.03,0.08 0,0.01 0,0.03 -0.01,0.04 0,0.01 0,0.03 -0.01,0.04l-0.15 1.04 -0.02 0 -0.02 0 -1.16 0 -1.59 0 -1.21 0 -2.35 0 -0.83 0 -2.9 0 -1.21 0 -0.05 0.03c-0.01,0 -0.02,0.01 -0.02,0.01 -0.02,0.01 -0.03,0.02 -0.04,0.03 -0.01,0 -0.01,0.01 -0.02,0.02 -0.01,0.01 -0.01,0.02 -0.02,0.03 -0.01,0.01 -0.01,0.02 -0.02,0.03 -0.01,0.01 -0.01,0.02 -0.01,0.03 -0.01,0.01 -0.01,0.02 -0.01,0.03 0,0.01 -0.01,0.01 -0.01,0.02l-0.81 5.67c0,0.01 0,0.02 0,0.02 0,0.01 0,0.02 0,0.02 0,0.02 0,0.03 0,0.04 0.01,0.02 0.01,0.03 0.01,0.05 0.01,0.02 0.02,0.03 0.03,0.05 0,0.01 0.01,0.03 0.02,0.04 0.02,0.01 0.03,0.02 0.04,0.03 0.02,0.01 0.03,0.02 0.04,0.03 0.02,0.01 0.04,0.01 0.06,0.02 0.01,0 0.02,0.01 0.03,0.01 0.01,0 0.02,0 0.04,0l1.07 0 0.27 0 0.55 0 0.57 0 1.3 0 0.04 0 1.05 0 0.25 0 0.58 0 2.35 0 1.17 0 0.04 0 0 0 1.3 0 0 0 1.38 0 0 0c0,0 0.01,0 0.01,0l1.61 0 0 0 0.54 0 0 -1.04 0 -1.12c0,0 0,0 0,0l0 0c0,0 0,0 0,0l0 -0.27 -0.54 0zm-8.69 -3.24l0.83 0 2.35 0 0.16 0 -0.78 5.13 -1.73 0 0 0 -1.63 0 0.77 -5.13 0.03 0zm3.11 5.13l0.77 -5.13 0.51 0 2.72 0 -0.74 5.13 -2 0c0,0 0,0 0,0 0,0 0,0 -0.01,0l-1.18 0 0 0 -0.07 0zm-4.46 0l-2.16 0c0,0 0,0 0,0l-0.22 0 0 0 0.73 -5.13 2.43 0 -0.78 5.13zm-2.46 -5.13l0 0 0.27 0 -0.74 5.13 -0.26 0 0.73 -5.13zm12.5 3.78l0 0 0 1.35 -0.95 0 0.19 -1.35 0.76 0zm-0.75 -5.38l0 0 0.02 -0.01 0.03 -0.01c0.01,0 0.02,0 0.03,0l2.83 0c0.08,0 0.14,0.06 0.14,0.14 0,0.07 -0.06,0.13 -0.14,0.13l-2.5 0c-0.13,0 -0.25,0.1 -0.27,0.23l-0.89 6.25 -0.27 0 0.95 -6.63c0,0 0,0 0,0l0.01 -0.04c0,0 0.01,-0.02 0.01,-0.02l0.02 -0.03 0.03 -0.01z"/>
  <g id="_2126101058224">
   <path class="fil1" d="M15.7 7.97c-0.17,0 -0.31,-0.14 -0.31,-0.31l0 -4.98c0,-0.17 0.14,-0.31 0.31,-0.31l3.12 0c1.2,0 2.17,0.97 2.18,2.18l0 5.6c0,0.17 -0.14,0.31 -0.32,0.31l-1.86 0c-0.18,0 -0.32,-0.14 -0.32,-0.31l0 -0.62c0,-0.86 -0.69,-1.56 -1.55,-1.56l-1.25 0zm4.67 -1.94l-1.87 -0.64 0 -1.15 1.84 0c0.02,0.1 0.03,0.2 0.03,0.31l0 0.93 0 0.55zm-2.49 -0.86l-0.62 -0.22 0 -0.71 0.62 0 0 0.93zm-1.14 0.25l3.63 1.27 0 1.91 -1.46 0c-0.36,-0.76 -1.12,-1.25 -1.96,-1.25l-0.94 0 0 -4.36 2.81 0c0.48,0 0.94,0.23 1.23,0.62l-3.1 0c-0.17,0 -0.31,0.14 -0.31,0.32l0 1.45 0.1 0.04zm2.39 4.11l0 0.31 1.24 0 0 -0.62 -1.27 0c0.02,0.1 0.03,0.21 0.03,0.31z"/>
   <polygon class="fil1" points="19.82,7.53 18.6,7.53 18.6,6.93 19.82,6.93 "/>
  </g>
  <path class="fil1" d="M15.36 9.63l-0.21 0 0 -1.25 0 0c0,0 0,0 0,0l0 0c0,-0.01 0,-0.01 0,-0.01l0 0c0,0 0,0 0,-0.01l0 0c0,0 0,0 0,0l0 0c0,0 0,0 0,-0.01l0 0c0,0 0,0 0,0l0 0 -0.2 -0.18 0 0 -0.32 0 -2.76 0 -0.32 0 -11.03 0 -0.31 0 0 0c0,0 -0.01,0 -0.01,0l0 0c0,0 0,0 0,0l0 0c0,0 -0.01,0 -0.01,0l0 0c0,0 0,0 0,0l0 0c-0.01,0 -0.01,0 -0.01,0l0 0c0,0 0,0 0,0.01l0 0c-0.01,0 -0.01,0 -0.01,0l0 0c0,0 0,0 0,0l0 0c-0.01,0 -0.01,0 -0.01,0l0 0c0,0 0,0 0,0l0 0c-0.01,0 -0.01,0 -0.01,0l0 0c0,0 0,0 0,0l0 0c-0.01,0 -0.01,0 -0.01,0 0,0 -0.01,0.01 -0.01,0.01l0 0c0,0 0,0 -0.01,0l0 0 0 0c0,0 0,0 0,0l0 0c-0.01,0 -0.01,0.01 -0.01,0.01l0 0c0,0 0,0 -0.01,0 0,0 0,0 0,0l0 0c0,0.01 -0.01,0.01 -0.01,0.01l0 0c-0.01,0.01 -0.02,0.01 -0.02,0.02l0 0c0,0 -0.01,0 -0.01,0l0 0c0,0 0,0.01 0,0.01l0 0c0,0 -0.01,0 -0.01,0l0 0c0,0.01 0,0.01 0,0.01l0 0c0,0 0,0 -0.01,0l0 0c0,0 0,0.01 0,0.01l0 0c0,0 0,0 0,0l0 0c-0.01,0.01 -0.01,0.01 -0.01,0.01l0 0c0,0 0,0 0,0l0 0c0,0 0,0.01 0,0.01l0 0c0,0 0,0 0,0l0 0c-0.01,0 -0.01,0 -0.01,0.01l0 0c0,0 0,0 0,0l0 0c0,0 0,0 0,0.01l0 0c0,0 0,0 0,0 0,0 0,0 -0.01,0l0 0c0,0.01 0,0.01 0,0.01l0 0c0,0 0,0 0,0l0 0c0,0.01 0,0.01 0,0.01 0,0 0,0 0,0 0,0.01 0,0.01 0,0.01 0,0 0,0 0,0l0 0c-0.01,0.01 -0.01,0.01 -0.01,0.01 0,0 0,0 0,0l0 0c0,0.01 0,0.01 0,0.01 0,0 0,0 0,0 0,0.01 0,0.01 0,0.01 0,0 0,0 0,0 0,0.01 0,0.01 0,0.01 0,0 0,0 0,0.01 0,0 0,0 0,0l0 0.32 0 1.14 0 0.32c0,0 0,0 0,0 0,0 0,0.01 0,0.01 0,0 0,0 0,0 0,0.01 0,0.01 0,0.01 0,0 0,0 0,0 0,0.01 0,0.01 0,0.01 0,0 0,0 0,0l0 0c0,0.01 0,0.01 0,0.01 0,0 0,0 0.01,0l0 0c0,0.01 0,0.01 0,0.01 0,0 0,0 0,0 0,0.01 0,0.01 0,0.01 0,0 0,0 0,0 0,0.01 0,0.01 0,0.01 0,0 0,0 0,0l0 0c0.01,0.01 0.01,0.01 0.01,0.01 0,0 0,0 0,0l0 0c0,0 0,0.01 0,0.01l0 0c0,0 0,0 0,0l0 0c0,0 0,0.01 0.01,0.01l0 0c0,0 0,0 0,0 0,0 0,0 0,0.01l0 0c0,0 0,0 0,0l0 0c0,0 0,0 0.01,0 0,0.01 0,0.01 0,0.01l0 0c0,0 0,0 0,0l0 0c0,0 0,0 0,0.01l0 0c0.01,0 0.01,0 0.01,0l0 0c0,0 0,0 0,0 0,0 0,0.01 0,0.01l0 0c0.01,0 0.01,0 0.01,0l0 0c0,0 0,0 0,0 0,0.01 0,0.01 0,0.01l0 0c0.01,0 0.01,0 0.01,0l0 0c0,0 0,0 0,0l0 0c0,0.01 0,0.01 0.01,0.01l0 0c0,0 0,0 0,0l0 0c0,0 0,0 0,0l0 0c0.01,0.01 0.01,0.01 0.01,0.01l0 0c0,0 0,0 0,0 0,0 0,0 0.01,0l0 0c0,0 0,0 0,0.01l0 0c0,0 0,0 0,0 0.01,0 0.01,0 0.01,0l0 0c0,0 0,0 0,0l0 0c0,0 0.01,0 0.01,0.01l0 0c0,0 0,0 0,0l0 0c0,0 0.01,0 0.01,0l0 0c0,0 0,0 0,0l0 0c0,0 0,0 0.01,0l0 0c0,0 0,0 0,0l0 0c0,0.01 0,0.01 0.01,0.01 0,0 0,0 0,0 0,0 0,0 0.01,0 0,0 0,0 0,0l0 0c0,0 0,0 0.01,0 0,0 0,0 0,0l0 0c0,0 0,0 0.01,0 0,0 0,0 0,0 0,0 0,0 0.01,0l0 0c0,0 0,0 0,0.01 0,0 0.01,0 0.01,0 0,0 0,0 0,0 0,0 0.01,0 0.01,0l0.31 0 2.01 0c0,-0.06 0,-0.11 0,-0.16 0,-0.21 0.03,-0.4 0.1,-0.58l-1.9 0 0 -0.72 2.48 0c0.25,-0.18 0.56,-0.28 0.9,-0.28 0.33,0 0.64,0.1 0.89,0.28l1.26 0c0.25,-0.18 0.56,-0.28 0.9,-0.28 0.33,0 0.64,0.1 0.89,0.28l3.29 0 0 0.72 -2.71 0c0.07,0.18 0.11,0.37 0.11,0.58 0,0.05 -0.01,0.1 -0.01,0.16l2.82 0 0.32 0 2.76 0 0.32 0 0.31 0c0,-0.06 -0.01,-0.11 -0.01,-0.16 0,-0.21 0.04,-0.4 0.11,-0.58zm-3.29 0l0 -0.72 2.35 0 0 0.72 -2.35 0zm-11.95 -1.44c-0.01,0 -0.01,0.01 -0.01,0.01l0.01 -0.01zm-0.02 0.01c0,0 0,0 0,0l0 0zm-0.03 0.03c0,0 -0.01,0 -0.01,0l0.01 0zm-0.01 0.01c0,0 -0.01,0 -0.01,0l0.01 0zm-0.02 0.02c0,0 0,0 0,0l0 0zm15.11 0.08l0 0c0,0 0,0 0,-0.01l0 0c0,0 0,0 0,0l0 0c0,0 0,0 0,-0.01l0 0c0,0 0,0 0,0l0 0c-0.01,0 -0.01,0 -0.01,-0.01 0,0 0,0 0,0 0,0 0,0 0,-0.01 0,0 0,0 0,0l0 0c0,0 0,0 0,0 0,-0.01 -0.01,-0.01 -0.01,-0.01 0,0 0,-0.01 0,-0.01l0 0c0,0 0,0 0,0 0,0 0,-0.01 -0.01,-0.01 0,0 0,0 0,0l0 0c0,0 0,0 0,-0.01 0,0 0,0 0,0l0 0c0,0 -0.01,0 -0.01,0l0 0c0,0 0,-0.01 0,-0.01l0 0c0,0 0,0 0,0l0 0c0,0 -0.01,0 -0.01,-0.01 0,0 0,0 0,0l0 0c0,0 0,0 0,0l0 0c0,0 -0.01,-0.01 -0.01,-0.01l0 0c0,0 0,0 0,0l0 0c0,0 0,0 0,0l0 0c0,0 -0.01,-0.01 -0.01,-0.01l0 0c0,0 0,0 0,0l0 0c-0.01,0 -0.01,-0.01 -0.01,-0.01l0 0c0,0 -0.01,0 -0.01,0l0 0c0,0 0,-0.01 -0.01,-0.01l0 0c0,0 0,0 0,0l0 0c0,0 0,0 0,0l0 0c-0.01,0 -0.01,0 -0.01,0l0 0c0,-0.01 0,-0.01 0,-0.01l0 0c0,0 -0.01,0 -0.01,0l0 0c0,0 0,0 0,0l0 0c0,0 -0.01,0 -0.01,0l0 0c0,0 0,0 0,0l0 0c0,-0.01 -0.01,-0.01 -0.01,-0.01l0 0c0,0 0,0 0,0l0 0c0,0 0,0 -0.01,0l0 0c0,0 0,0 0,0l0 0c0,0 0,0 -0.01,0l0 0c0,0 0,0 0,0l0 0c0,0 0,0 -0.01,0l0 0c0,0 0,0 0,0l0 0c0,-0.01 -0.01,-0.01 -0.01,-0.01l0 0c0,0 0,0 0,0l0 0c0,0 -0.01,0 -0.01,0l0 0c0,0 0,0 0,0l0 0c0,0 -0.01,0 -0.01,0l0 0c0,0 0,0 0,0l0.2 0.17zm-0.02 -0.05c0,0 0,-0.01 0,-0.01l0 0.01z"/>
  <path class="fil1" d="M16.81 8.75c-0.79,0 -1.44,0.65 -1.44,1.45 0,0.79 0.65,1.44 1.44,1.44 0.8,0 1.44,-0.65 1.44,-1.44 0,-0.8 -0.64,-1.44 -1.44,-1.45zm0 2.31c-0.47,0 -0.86,-0.39 -0.86,-0.86 0,-0.48 0.39,-0.87 0.86,-0.87 0.48,0 0.87,0.39 0.87,0.87 0,0.47 -0.39,0.86 -0.87,0.86zm0 0z"/>
  <path class="fil1" d="M7.14 8.75c-0.8,0 -1.44,0.65 -1.44,1.45 0,0.79 0.64,1.44 1.44,1.44 0.8,0 1.44,-0.65 1.44,-1.44 0,-0.8 -0.64,-1.44 -1.44,-1.45zm0 2.31c-0.48,0 -0.86,-0.39 -0.86,-0.86 0,-0.48 0.38,-0.87 0.86,-0.87 0.48,0 0.86,0.39 0.86,0.87 0,0.47 -0.38,0.86 -0.86,0.86zm0 0z"/>
  <path class="fil1" d="M4.1 8.75c-0.79,0 -1.44,0.65 -1.44,1.45 0,0.79 0.65,1.44 1.44,1.44 0.8,0 1.45,-0.65 1.45,-1.44 -0.01,-0.8 -0.65,-1.44 -1.45,-1.45zm0 2.31c-0.47,0 -0.86,-0.39 -0.86,-0.86 0,-0.48 0.39,-0.87 0.86,-0.87 0.48,0 0.87,0.39 0.87,0.87 0,0.47 -0.39,0.86 -0.87,0.86zm0 0z"/>
 </g>
</svg>
