<?xml version="1.0" encoding="UTF-8"?>
<!DOCTYPE svg PUBLIC "-//W3C//DTD SVG 1.1//EN" "http://www.w3.org/Graphics/SVG/1.1/DTD/svg11.dtd">
<!-- Creator: CorelDRAW 2018 (64-Bit) -->
<svg xmlns="http://www.w3.org/2000/svg" xml:space="preserve" width="9930px" height="6951px" version="1.1" style="shape-rendering:geometricPrecision; text-rendering:geometricPrecision; image-rendering:optimizeQuality; fill-rule:evenodd; clip-rule:evenodd"
viewBox="0 0 1334.69 934.26"
 xmlns:xlink="http://www.w3.org/1999/xlink">
 <defs>
  <style type="text/css">
   <![CDATA[
    .fil0 {fill:white}
   ]]>
  </style>
 </defs>
 <g id="Layer_x0020_1">
  <metadata id="CorelCorpID_0Corel-Layer"/>
  <path class="fil0" d="M244.69 622.83c-61.44,0 -111.22,49.8 -111.22,111.22 0,61.43 49.78,111.22 111.22,111.22 61.42,0 111.22,-49.79 111.22,-111.22 -0.08,-61.39 -49.84,-111.14 -111.22,-111.22zm0 177.95c-36.86,0 -66.74,-29.87 -66.74,-66.73 0,-36.85 29.88,-66.73 66.74,-66.73 36.85,0 66.73,29.88 66.73,66.73 0,36.86 -29.88,66.73 -66.73,66.73zm0 0z"/>
  <path class="fil0" d="M1045.47 622.83c-61.43,0 -111.22,49.8 -111.22,111.22 0,61.43 49.79,111.22 111.22,111.22 61.42,0 111.22,-49.79 111.22,-111.22 -0.08,-61.39 -49.83,-111.14 -111.22,-111.22zm0 177.95c-36.85,0 -66.73,-29.87 -66.73,-66.73 0,-36.85 29.88,-66.73 66.73,-66.73 36.85,0 66.73,29.88 66.73,66.73 0,36.86 -29.88,66.73 -66.73,66.73zm0 0z"/>
  <path class="fil0" d="M511.61 667.32l200.2 0c10.19,-0.01 19.07,-6.95 21.55,-16.84l151.52 -605.99 205.08 0c12.28,0 22.24,-9.96 22.24,-22.25 0,-12.28 -9.96,-22.24 -22.24,-22.24l-222.44 0c-10.21,0 -19.11,6.94 -21.59,16.85l-23.6 94.37 -755.6 0c-10.21,0 -19.1,6.94 -21.58,16.85l-44.49 177.95c-2.25,9.03 1.36,18.53 9.06,23.77l489.37 333.66c3.69,2.52 8.05,3.87 12.52,3.87l0 0zm182.82 -44.49l-175.94 0 -470.92 -321.06 36.53 -146.06 727.11 0 -116.78 467.12zm0 0z"/>
  <path class="fil0" d="M1245.66 311.42l-70.74 0 -40.92 -204.64c-2.12,-10.36 -11.23,-17.8 -21.8,-17.8l-177.95 0 0 0.44c-4.59,-0.01 -9.06,1.3 -12.9,3.78 -1.17,0.9 -2.29,1.87 -3.34,2.9 -2.67,2.69 -4.52,6.08 -5.34,9.79l-151.49 605.92 -317.61 0c-11.81,-105.58 -104.02,-183.55 -210.1,-177.64 -106.07,5.91 -189.06,93.65 -189.06,199.88 0,106.25 82.99,193.98 189.06,199.89 106.08,5.91 198.29,-72.06 210.1,-177.65l403.02 0c11.62,101.05 97.16,177.31 198.88,177.31 101.7,0 187.25,-76.26 198.88,-177.31l23.56 0c31.82,0.79 59.52,-21.64 65.39,-52.93 0.22,-1.34 0.45,-2.45 0.67,-3.78 0.22,-1.34 0.22,-2.68 0.44,-4.01 0.19,-1.99 0.26,-4 0.23,-6.01l0 -289.17c0.83,-23.84 -8.27,-46.96 -25.13,-63.84 -16.88,-16.87 -40.01,-25.97 -63.85,-25.14l0 0.01zm-1000.97 578.34c-86,0 -155.71,-69.71 -155.71,-155.71 0,-85.99 69.71,-155.71 155.71,-155.71 85.98,0 155.7,69.72 155.7,155.71 -0.09,85.96 -69.75,155.61 -155.7,155.71zm849.26 -756.3l17.8 88.98 -66.28 0 0 -88.98 48.48 0zm-48.48 756.3c-86,0 -155.71,-69.71 -155.71,-155.71 0,-85.99 69.71,-155.71 155.71,-155.71 85.99,0 155.71,69.72 155.71,155.71 -0.1,85.96 -69.76,155.61 -155.71,155.71zm244.68 -200.2c0.44,6.03 -1.77,11.94 -6.04,16.21 -4.27,4.28 -10.19,6.47 -16.2,6.04l-23.56 0c-11.63,-101.05 -97.18,-177.31 -198.88,-177.31 -101.72,0 -187.26,76.26 -198.88,177.31l-39.58 0 55.61 -222.44 0.23 -0.89c1.53,0.41 3.09,0.7 4.67,0.89l280.94 0 141.69 121.45 0 78.74zm0 -137.24l-119.01 -102.1c-4.05,-3.41 -9.16,-5.3 -14.45,-5.34l-282.95 0 77.85 -311.42 49.39 0 0 111.22c0,12.29 9.96,22.25 22.24,22.25l97.43 0 14.24 71.18c2.11,10.36 11.22,17.8 21.8,17.79l88.97 0c12.07,-0.95 23.94,3.43 32.51,11.99 8.56,8.56 12.94,20.43 11.98,32.5l0 151.93zm0 0z"/>
 </g>
</svg>
