<?xml version="1.0" encoding="UTF-8"?>
<!DOCTYPE svg PUBLIC "-//W3C//DTD SVG 1.1//EN" "http://www.w3.org/Graphics/SVG/1.1/DTD/svg11.dtd">
<!-- Creator: CorelDRAW 2018 (64-Bit) -->
<svg xmlns="http://www.w3.org/2000/svg" xml:space="preserve" width="11367px" height="10230px" version="1.1" style="shape-rendering:geometricPrecision; text-rendering:geometricPrecision; image-rendering:optimizeQuality; fill-rule:evenodd; clip-rule:evenodd"
viewBox="0 0 1794.54 1615.09"
 xmlns:xlink="http://www.w3.org/1999/xlink">
 <defs>
  <style type="text/css">
   <![CDATA[
    .fil0 {fill:white}
   ]]>
  </style>
 </defs>
 <g id="Layer_x0020_1">
  <metadata id="CorelCorpID_0Corel-Layer"/>
  <g id="_2809638286688">
   <path class="fil0" d="M1791.38 853.99l-58.52 -117.05 -26.14 -94.11 74.5 -49.67c8.32,-5.55 13.32,-14.89 13.32,-24.89 0,-2.44 -0.3,-4.89 -0.89,-7.25l-89.73 -358.91c-3.32,-13.31 -15.29,-22.66 -29.01,-22.66 0,0 0,0 0,0l-109.67 0 -231.3 -173.47c-5.17,-3.88 -11.47,-5.98 -17.94,-5.98l-89.73 0c0,0 0,0 0,0 -16.52,0 -29.91,13.39 -29.91,29.91 0,4.64 1.08,9.23 3.16,13.38l4.57 9.13 -260.38 130.19 -179.45 89.73c-10.13,5.06 -16.53,15.42 -16.53,26.75 0,0 0,0 0,0l0 97.6 -163.38 85.24c-4.88,2.55 -8.98,6.41 -11.82,11.13l-260.47 434.12 -282.15 0c-16.51,0 -29.91,13.39 -29.91,29.91l0 388.82c0,16.51 13.4,29.9 29.91,29.9l149.63 0c-19.45,25.87 -29.99,57.42 -29.99,89.81 0,82.53 66.93,149.47 149.46,149.47 0.02,0 0.06,0 0.07,0l717.83 0c82.57,0 149.54,-66.97 149.54,-149.55 0,-82.58 -66.97,-149.54 -149.54,-149.54l-239.28 0 0 -29.91 89.73 0c0,0 0,0 0,0 10,0 19.35,-5.01 24.89,-13.32l59.82 -89.73c3.27,-4.91 5.02,-10.69 5.02,-16.59l0 -418.72c0,-16.52 -13.4,-29.91 -29.91,-29.91l-59.82 0 0 -75.35 412.3 -329.84 299.31 435.36 -108.4 162.6c-3.28,4.91 -5.03,10.68 -5.03,16.59l0 74.77 -107.67 80.76c-7.53,5.64 -11.96,14.51 -11.96,23.92 0,0 0,0 0,0l0 59.82c0,16.52 13.39,29.91 29.9,29.91l252.03 0c92.01,-0.08 166.62,-74.69 166.7,-166.7l0 -162.3c0,0 0,0 0,0 0,-4.64 -1.08,-9.22 -3.16,-13.37l0 0zm-101.51 -271.82l-31.53 -113.52 47.58 -11.89 24.58 98.32 -40.63 27.09zm1.55 -183.45l-49.1 12.28 -47.7 -171.73 56.93 0 39.87 159.45zm-385.39 -338.9l223.14 167.36 136.29 490.64 -34.64 0 -314.82 -457.93 0 -110.35c-0.02,-4.63 -1.12,-9.21 -3.21,-13.34l0.05 -0.03 -38.18 -76.35 31.37 0zm-59.84 76.81l-240.07 125.25 -12.45 -37.37 237.17 -118.58 15.35 30.7zm-438.65 180.95l132.08 -66.04 12.79 38.36 -144.87 75.59 0 -47.91zm-335.34 669.42l245.62 109.16 0 100.2 -658 0 0 -209.36 412.38 0zm79.99 -29.91l-28 -12.45 119.29 -167.01 44.43 0 0 179.46 -135.72 0zm554.44 508.45c-0.04,49.52 -40.2,89.68 -89.73,89.73l-717.81 0c-49.54,0 -89.72,-40.18 -89.72,-89.73 0,-49.55 40.18,-89.73 89.72,-89.73l717.82 0c49.52,0.05 89.68,40.21 89.72,89.73l0 0zm-1046.81 -149.54l0 -59.82 658 0 0 59.82 -658 0zm791.54 -89.73l-73.73 0 0 -149.55c0.01,-11.82 -6.96,-22.53 -17.76,-27.33l-73.09 -32.48 210.49 0 0 140.49 -45.91 68.87zm45.91 -269.18l-149.54 0 0 -179.46 149.54 0 0 179.46zm358.91 -702.28l-437.41 349.92c-7.09,5.67 -11.23,14.28 -11.23,23.36 0,0 0,0 0,0l0 89.72 -179.45 0.01c0,0 0,0 0,0 -9.66,0 -18.73,4.66 -24.34,12.52l-140.6 196.84 -81.32 0 237.66 -396.11 636.69 -332.19 0 55.93zm478.54 774.86c-0.05,58.98 -47.89,106.82 -106.88,106.87l-222.12 0 0 -14.95 107.67 -80.76c7.53,-5.64 11.97,-14.51 11.97,-23.92 0,0 0,0 0,0l0 -80.67 105.73 -158.61 55.24 0 48.39 96.79 0 155.25z"/>
   <path class="fil0" d="M329 1465.54c0,-16.52 -13.39,-29.91 -29.91,-29.91 -16.52,0 -29.91,13.39 -29.91,29.91 0,16.52 13.39,29.91 29.91,29.91 16.52,0 29.91,-13.39 29.91,-29.91z"/>
   <path class="fil0" d="M1046.81 1465.54c0,-16.52 -13.38,-29.91 -29.9,-29.91 -16.52,0 -29.91,13.39 -29.91,29.91 0,16.52 13.39,29.91 29.91,29.91 16.52,0 29.9,-13.39 29.9,-29.91z"/>
  </g>
 </g>
</svg>
